0
SECTION
2
HEADER
9
$INSUNITS
70
4
9
$ACADVER
1
AC1014
9
$HANDSEED
5
FFFF
0
ENDSEC
0
SECTION
2
TABLES
0
TABLE
2
VPORT
5
8
100
AcDbSymbolTable
0
ENDTAB
0
TABLE
2
LTYPE
5
5
100
AcDbSymbolTable
0
LTYPE
5
14
100
AcDbSymbolTableRecord
100
AcDbLinetypeTableRecord
2
BYBLOCK
70
0
0
LTYPE
5
15
100
AcDbSymbolTableRecord
100
AcDbLinetypeTableRecord
2
BYLAYER
70
0
0
ENDTAB
0
TABLE
2
LAYER
5
2
100
AcDbSymbolTable
70
2
0
LAYER
5
50
100
AcDbSymbolTableRecord
100
AcDbLayerTableRecord
2
0
70
0
6
CONTINUOUS
0
ENDTAB
0
TABLE
2
STYLE
5
3
100
AcDbSymbolTable
70
1
0
STYLE
5
11
100
AcDbSymbolTableRecord
100
AcDbTextStyleTableRecord
2
STANDARD
70
0
0
ENDTAB
0
TABLE
2
VIEW
5
6
100
AcDbSymbolTable
70
0
0
ENDTAB
0
TABLE
2
UCS
5
7
100
AcDbSymbolTable
70
0
0
ENDTAB
0
TABLE
2
APPID
5
9
100
AcDbSymbolTable
70
2
0
APPID
5
12
100
AcDbSymbolTableRecord
100
AcDbRegAppTableRecord
2
ACAD
70
0
0
ENDTAB
0
TABLE
2
DIMSTYLE
5
A
100
AcDbSymbolTable
70
1
0
ENDTAB
0
TABLE
2
BLOCK_RECORD
5
1
100
AcDbSymbolTable
70
1
0
BLOCK_RECORD
5
1F
100
AcDbSymbolTableRecord
100
AcDbBlockTableRecord
2
*MODEL_SPACE
0
BLOCK_RECORD
5
1B
100
AcDbSymbolTableRecord
100
AcDbBlockTableRecord
2
*PAPER_SPACE
0
ENDTAB
0
ENDSEC
0
SECTION
2
BLOCKS
0
BLOCK
5
20
100
AcDbEntity
100
AcDbBlockBegin
2
*MODEL_SPACE
0
ENDBLK
5
21
100
AcDbEntity
100
AcDbBlockEnd
0
BLOCK
5
1C
100
AcDbEntity
100
AcDbBlockBegin
2
*PAPER_SPACE
0
ENDBLK
5
1D
100
AcDbEntity
100
AcDbBlockEnd
0
ENDSEC
0
SECTION
2
ENTITIES
0
LWPOLYLINE
5
100
100
AcDbEntity
8
0
100
AcDbPolyline
90
44
70
1
43
0.0
10
210.04892806538118
20
62.979203561042006
10
210.22984757207681
20
61.188318826588947
42
-0.41421356237309631
10
208.44099731901304
20
58.997425225312611
10
206.65011258455993
20
58.816505718616952
42
0.41421356237312351
10
206.202900021294
20
58.268782318297873
10
205.87121425901864
20
61.552070998128471
42
-0.16227766016838066
10
206.07923529474633
20
62.477666616470948
10
206.0610324960968
20
62.657852351117072
42
-0.25076489093331283
10
206.67203751635455
20
64.141262520637966
10
212.23960994965216
20
68.724071397296939
42
-0.14806873911202598
10
213.20932527340796
20
69.127995435803044
10
247.50991561810932
20
72.593124020099225
42
-0.14806873911202065
10
248.54082428208361
20
72.391307854858439
10
254.91248341180639
20
69.014629022837084
42
-0.25076489093330834
10
255.80783067534838
20
67.683394203774043
10
258.1760876922803
20
44.240508379309034
42
-0.25076489093331283
10
257.56508267202258
20
42.75709820978814
10
251.99751023872494
20
38.174289333129174
42
-0.14806873911202734
10
251.02779491496918
20
37.770365294623069
10
216.72720457026776
20
34.305236710326888
42
-0.14806873911201712
10
215.6962959062935
20
34.507052875567666
10
209.32463677657069
20
37.883731707588957
42
-0.25076489093330884
10
208.42928951302866
20
39.214966526652056
10
208.41108671437917
20
39.395152261298179
42
-0.16227766016838066
10
208.0221461719558
20
40.260441377408782
10
207.69046040968047
20
43.543730057239387
42
0.41421356237309398
10
208.23818380999961
20
43.096517493973437
10
210.02906854445263
20
43.277437000669075
42
-0.41421356237309359
10
212.21996214572897
20
41.488586747605297
10
212.40088165242463
20
39.697702013152245
42
0.41421356237309687
10
212.94860505274369
20
39.250489449886302
10
248.16933816365383
20
42.808573081567438
42
0.41421356237308937
10
248.6165507269198
20
43.356296481886517
10
248.43563122022417
20
45.147181216339582
42
-0.41421356237309515
10
250.22448147328794
20
47.338074817615919
10
252.01536620774101
20
47.518994324311578
42
0.41421356237309148
10
252.46257877100692
20
48.066717724630657
10
250.9750183826205
20
62.791769985689136
42
0.41421356237309348
10
250.42729498230136
20
63.238982548955093
10
248.63641024784835
20
63.058063042259406
42
-0.41421356237309415
10
246.44551664657197
20
64.846913295323219
10
246.26459713987634
20
66.637798029776278
42
0.41421356237311985
10
245.71687373955726
20
67.085010593042227
10
210.49614062864708
20
63.526926961361092
42
0.41421356237312351
0
CIRCLE
5
101
100
AcDbEntity
8
0
100
AcDbCircle
10
210.20325746476288
20
41.254701669480305
30
0
40
1.0000000000000022
0
CIRCLE
5
102
100
AcDbEntity
8
0
100
AcDbCircle
10
250.45836655141335
20
45.321370136649897
30
0
40
1.0000000000000022
0
CIRCLE
5
103
100
AcDbEntity
8
0
100
AcDbCircle
10
208.20711224088754
20
61.014129906279052
30
-2.2204460492503131e-15
40
1.0000000000000004
0
CIRCLE
5
104
100
AcDbEntity
8
0
100
AcDbCircle
10
248.46222132753803
20
65.080798373448644
30
0
40
1.0000000000000004
0
CIRCLE
5
105
100
AcDbEntity
8
0
100
AcDbCircle
10
249.74418526006315
20
40.153416471698414
30
0
40
1.1999999999999931
0
CIRCLE
5
106
100
AcDbEntity
8
0
100
AcDbCircle
10
215.91636249817208
20
36.736048011891683
30
0
40
1.1999999999999931
0
CIRCLE
5
107
100
AcDbEntity
8
0
100
AcDbCircle
10
232.83027387911761
20
38.444732241795052
30
0
40
1.1999999999999864
0
CIRCLE
5
108
100
AcDbEntity
8
0
100
AcDbCircle
10
255.35896138980348
20
47.253718508435909
30
0
40
1.1999999999999931
0
CIRCLE
5
109
100
AcDbEntity
8
0
100
AcDbCircle
10
253.6502771599001
20
64.167629889381473
30
0
40
1.1999999999999931
0
CIRCLE
5
110
100
AcDbEntity
8
0
100
AcDbCircle
10
246.72886014846898
20
70.001495379249391
30
0
40
1.1999999999999931
0
CIRCLE
5
111
100
AcDbEntity
8
0
100
AcDbCircle
10
229.81494876752345
20
68.292811149346036
30
0
40
1.1999999999999931
0
CIRCLE
5
112
100
AcDbEntity
8
0
100
AcDbCircle
10
212.90103738657788
20
66.584126919442653
30
0
40
1.1999999999999931
0
LINE
5
113
100
AcDbEntity
8
0
100
AcDbLine
10
213.17917202229199
20
69.426476224878542
30
-2.2204460492503131e-15
11
247.47976236699338
21
72.891604809174723
31
-2.2204460492503131e-15
0
ARC
5
114
100
AcDbEntity
8
0
100
AcDbCircle
10
213.39150284846613
20
67.324657343132174
30
-1.7003059979722512e-45
40
2.1125167434625034
100
AcDbArc
50
95.768587495540046
51
129.4586550215223
0
LINE
5
115
100
AcDbEntity
8
0
100
AcDbLine
10
206.4813811426186
20
64.372887534731589
30
-2.2204460492503131e-15
11
212.04895357591624
21
68.955696411390562
31
-2.2204460492503131e-15
0
ARC
5
116
100
AcDbEntity
8
0
100
AcDbCircle
10
207.75242363419136
20
62.828720774107396
30
-2.2204460492503131e-15
40
1.9999999999999911
100
AcDbArc
50
129.45865502151975
51
185.76858749554017
0
LINE
5
117
100
AcDbEntity
8
0
100
AcDbLine
10
205.87121425901867
20
61.552070998128478
30
-2.2204460492503131e-15
11
205.76255170702129
21
62.627699100001131
31
-2.2204460492503131e-15
0
LINE
5
118
100
AcDbEntity
8
0
100
AcDbLine
10
205.87121425901867
20
61.552070998128478
30
-2.2204460492503131e-15
11
206.202900021294
21
58.268782318297873
31
-2.2204460492503131e-15
0
ARC
5
119
100
AcDbEntity
8
0
100
AcDbCircle
10
247.69209319316758
20
70.78978592742817
30
-2.5059841921824426e-46
40
2.1125167434626917
100
AcDbArc
50
62.078519969561981
51
95.768587495540316
0
LINE
5
120
100
AcDbEntity
8
0
100
AcDbLine
10
248.68130261288701
20
72.656384897573759
30
2.2204460492503131e-15
11
255.05296174260977
21
69.27970606555246
31
2.2204460492503131e-15
0
ARC
5
121
100
AcDbEntity
8
0
100
AcDbCircle
10
254.11643953725383
20
67.512525780783633
30
1.1760164724405661e-46
40
2.0000000000001044
100
AcDbArc
50
5.7685874955421497
51
62.078519969560773
0
LINE
5
122
100
AcDbEntity
8
0
100
AcDbLine
10
256.10631146442392
20
67.713547454889977
30
0
11
258.47456848135585
21
44.270661630424982
31
3.0814879110195774e-32
0
ARC
5
123
100
AcDbEntity
8
0
100
AcDbCircle
10
256.48469655418569
20
44.069639956318731
30
3.5408786879301408e-46
40
2.0000000000000568
100
AcDbArc
50
-50.541344978479515
51
5.7685874955394922
0
LINE
5
124
100
AcDbEntity
8
0
100
AcDbLine
10
257.7557390457585
20
42.525473195694502
30
0
11
252.18816661246086
21
37.942664319035529
31
1.5407439555097887e-32
0
ARC
5
125
100
AcDbEntity
8
0
100
AcDbCircle
10
250.84561733991094
20
39.573703387294053
30
-3.7974641000989916e-46
40
2.1125167434626166
100
AcDbArc
50
275.76858749554202
51
309.45865502152083
0
LINE
5
126
100
AcDbEntity
8
0
100
AcDbLine
10
251.05794816608511
20
37.471884505547564
30
0
11
216.75735782138375
21
34.006755921251369
31
2.4651903288156619e-31
0
ARC
5
127
100
AcDbEntity
8
0
100
AcDbCircle
10
216.5450269952095
20
36.108574802997786
30
-1.0520001898922882e-46
40
2.112516743462534
100
AcDbArc
50
242.07851996956055
51
275.76858749554225
0
LINE
5
128
100
AcDbEntity
8
0
100
AcDbLine
10
215.5558175754901
20
34.241975832852354
30
0
11
209.18415844576737
21
37.618654664873659
31
3.0814879110195774e-32
0
ARC
5
129
100
AcDbEntity
8
0
100
AcDbCircle
10
210.12068065112322
20
39.385834949642408
30
-7.6975623650655235e-47
40
1.9999999999999938
100
AcDbArc
50
185.768587495541
51
242.0785199695618
0
LINE
5
130
100
AcDbEntity
8
0
100
AcDbLine
10
208.13080872395318
20
39.184813275536115
30
0
11
208.0221461719558
21
40.260441377408767
31
-2.4074124304840448e-32
0
LINE
5
131
100
AcDbEntity
8
0
100
AcDbLine
10
207.69046040968047
20
43.543730057239387
30
0
11
208.0221461719558
21
40.260441377408782
31
-1.9259299443872359e-33
0
LINE
5
132
100
AcDbEntity
8
0
100
AcDbLine
10
210.49614062864708
20
63.526926961361099
30
0
11
245.71687373955726
21
67.085010593042227
31
-1.2325951644078309e-31
0
ARC
5
133
100
AcDbEntity
8
0
100
AcDbCircle
10
245.76712915808386
20
66.587542611249717
30
4.3619520068704633e-47
40
0.49999999999997924
100
AcDbArc
50
5.7685874955399354
51
95.768587495544708
0
LINE
5
134
100
AcDbEntity
8
0
100
AcDbLine
10
246.26459713987632
20
66.637798029776278
30
0
11
246.44551664657197
21
64.846913295323219
31
1.9259299443872359e-33
0
ARC
5
135
100
AcDbEntity
8
0
100
AcDbCircle
10
248.43538857374205
20
65.047934969429505
30
0
40
1.9999999999999925
100
AcDbArc
50
185.76858749554088
51
275.76858749554123
0
LINE
5
136
100
AcDbEntity
8
0
100
AcDbLine
10
248.63641024784835
20
63.058063042259434
30
0
11
250.42729498230136
21
63.238982548955093
31
1.5407439555097887e-32
0
ARC
5
137
100
AcDbEntity
8
0
100
AcDbCircle
10
250.47755040082797
20
62.741514567162533
30
-8.0182941302765869e-47
40
0.5000000000000191
100
AcDbArc
50
5.7685874955441747
51
95.768587495537815
0
LINE
5
138
100
AcDbEntity
8
0
100
AcDbLine
10
252.46257877100697
20
48.066717724630657
30
0
11
250.9750183826205
21
62.791769985689143
31
0
0
ARC
5
139
100
AcDbEntity
8
0
100
AcDbCircle
10
251.96511078921444
20
48.016462306104096
30
-6.7888223636341769e-48
40
0.50000000000000666
100
AcDbArc
50
-84.231412504458774
51
5.7685874955393652
0
LINE
5
140
100
AcDbEntity
8
0
100
AcDbLine
10
252.01536620774101
20
47.518994324311564
30
0
11
250.22448147328794
21
47.338074817615919
31
0
0
ARC
5
141
100
AcDbEntity
8
0
100
AcDbCircle
10
250.42550314739424
20
45.348202890445855
30
0
40
2
100
AcDbArc
50
95.76858749554124
51
185.7685874955404
0
LINE
5
142
100
AcDbEntity
8
0
100
AcDbLine
10
248.43563122022417
20
45.147181216339575
30
0
11
248.6165507269198
21
43.356296481886517
31
1.4444474582904269e-33
0
ARC
5
143
100
AcDbEntity
8
0
100
AcDbCircle
10
248.11908274512729
20
43.306041063359963
30
-6.7888223636341769e-48
40
0.50000000000000666
100
AcDbArc
50
-84.231412504462114
51
5.768587495538795
0
LINE
5
144
100
AcDbEntity
8
0
100
AcDbLine
10
212.94860505274372
20
39.250489449886295
30
0
11
248.16933816365389
21
42.808573081567431
31
2.4651903288156619e-31
0
CIRCLE
5
145
100
AcDbEntity
8
0
100
AcDbCircle
10
253.6502771599001
20
64.167629889381473
30
0
40
1.1999999999999931
0
CIRCLE
5
146
100
AcDbEntity
8
0
100
AcDbCircle
10
246.72886014846898
20
70.001495379249391
30
0
40
1.1999999999999931
0
CIRCLE
5
147
100
AcDbEntity
8
0
100
AcDbCircle
10
229.81494876752345
20
68.292811149346036
30
0
40
1.1999999999999931
0
CIRCLE
5
148
100
AcDbEntity
8
0
100
AcDbCircle
10
212.90103738657788
20
66.584126919442653
30
0
40
1.1999999999999931
0
CIRCLE
5
149
100
AcDbEntity
8
0
100
AcDbCircle
10
215.91636249817208
20
36.736048011891683
30
0
40
1.1999999999999931
0
CIRCLE
5
150
100
AcDbEntity
8
0
100
AcDbCircle
10
232.83027387911761
20
38.444732241795052
30
0
40
1.1999999999999864
0
CIRCLE
5
151
100
AcDbEntity
8
0
100
AcDbCircle
10
218.88591177850765
20
52.112386232406294
30
0
40
5.0000000000000044
0
CIRCLE
5
152
100
AcDbEntity
8
0
100
AcDbCircle
10
249.74418526006315
20
40.153416471698414
30
0
40
1.1999999999999931
0
CIRCLE
5
153
100
AcDbEntity
8
0
100
AcDbCircle
10
255.35896138980348
20
47.253718508435909
30
0
40
1.1999999999999931
0
ENDSEC
0
SECTION
2
OBJECTS
0
DICTIONARY
5
C
100
AcDbDictionary
3
ACAD_GROUP
350
D
3
ACAD_MLINESTYLE
350
17
0
DICTIONARY
5
D
100
AcDbDictionary
0
DICTIONARY
5
1A
330
C
100
AcDbDictionary
0
DICTIONARY
5
17
100
AcDbDictionary
0
ENDSEC
0
EOF
